<svg id="svg" version="1.1" xmlns="http://www.w3.org/2000/svg" xmlns:xlink="http://www.w3.org/1999/xlink" width="400" height="400" viewBox="0, 0, 400,400"><g id="svgg"><path id="path0" d="M249.885 1.414 C 212.151 7.866,198.587 33.229,214.121 68.286 C 215.685 71.816,215.506 71.815,217.188 68.300 C 223.947 54.183,237.099 44.104,252.374 41.335 C 256.034 40.671,266.432 40.445,268.758 40.978 C 269.964 41.254,270.093 41.205,269.908 40.545 C 269.055 37.496,264.507 22.164,261.203 11.200 C 260.573 9.110,259.633 5.960,259.115 4.200 L 258.173 1.000 255.587 0.941 C 254.164 0.908,251.598 1.121,249.885 1.414 M213.772 80.464 C 212.301 81.250,189.766 94.240,174.000 103.390 C 170.150 105.625,162.050 110.308,156.000 113.797 C 132.404 127.405,117.246 136.159,113.800 138.169 C 111.820 139.324,106.960 142.131,103.000 144.407 C 95.497 148.720,89.085 152.429,78.100 158.811 L 71.600 162.587 71.600 195.681 L 71.600 228.775 73.900 227.440 C 81.184 223.214,100.479 212.040,107.000 208.272 C 111.180 205.857,117.300 202.320,120.600 200.411 C 123.900 198.503,129.660 195.177,133.400 193.020 C 137.140 190.863,141.640 188.251,143.400 187.215 C 145.160 186.179,150.290 183.202,154.800 180.599 C 159.310 177.997,166.150 174.042,170.000 171.810 C 173.850 169.579,180.600 165.669,185.000 163.121 C 189.400 160.574,197.834 155.679,203.743 152.245 C 209.651 148.810,214.801 146.000,215.186 146.000 C 215.811 146.000,222.040 149.537,251.200 166.448 C 307.970 199.371,358.619 228.660,358.695 228.608 C 358.748 228.572,358.805 213.705,358.821 195.571 L 358.851 162.600 348.126 156.375 C 342.227 152.950,333.800 148.070,329.400 145.529 C 325.000 142.988,313.210 136.177,303.200 130.393 C 293.190 124.609,282.660 118.532,279.800 116.889 C 276.940 115.245,271.720 112.232,268.200 110.194 C 259.830 105.346,235.940 91.547,225.800 85.703 C 221.400 83.167,217.247 80.762,216.572 80.358 C 215.370 79.639,215.311 79.642,213.772 80.464 M207.981 176.946 C 195.944 183.798,172.261 197.268,167.800 199.799 C 165.380 201.173,156.290 206.340,147.600 211.283 C 138.910 216.226,128.200 222.315,123.800 224.814 C 119.400 227.312,109.770 232.794,102.400 236.995 L 89.000 244.634 89.000 301.791 L 89.000 358.948 94.052 362.780 C 159.000 412.040,274.594 411.048,339.101 360.678 L 341.603 358.725 341.501 301.695 L 341.400 244.665 338.200 242.799 C 335.181 241.039,321.399 233.191,297.800 219.796 C 292.080 216.549,281.640 210.613,274.600 206.605 C 267.560 202.597,259.010 197.734,255.600 195.799 C 252.190 193.864,242.380 188.284,233.800 183.399 C 216.450 173.520,215.864 173.200,215.101 173.200 C 214.804 173.200,211.601 174.886,207.981 176.946 M208.700 247.052 L 209.600 247.293 209.600 266.439 L 209.600 285.585 208.700 285.803 C 208.205 285.924,199.520 285.972,189.400 285.911 L 171.000 285.800 170.896 266.626 C 170.814 251.552,170.900 247.384,171.296 247.132 C 171.876 246.764,207.341 246.688,208.700 247.052 M259.104 247.132 C 259.500 247.384,259.586 251.552,259.504 266.626 L 259.400 285.800 241.000 285.911 C 230.880 285.972,222.195 285.924,221.700 285.803 L 220.800 285.585 220.800 266.612 C 220.800 248.965,220.849 247.611,221.500 247.232 C 222.341 246.742,258.339 246.647,259.104 247.132 M208.928 297.300 C 209.556 297.761,209.601 299.293,209.505 316.800 L 209.400 335.800 190.200 335.800 L 171.000 335.800 170.896 316.846 C 170.821 303.183,170.919 297.739,171.245 297.346 C 171.882 296.578,207.885 296.535,208.928 297.300 M259.155 297.346 C 259.481 297.739,259.579 303.183,259.504 316.846 L 259.400 335.800 240.200 335.800 L 221.000 335.800 220.895 316.800 C 220.799 299.293,220.844 297.761,221.472 297.300 C 222.515 296.535,258.518 296.578,259.155 297.346 " stroke="none" fill="#a54137" fill-rule="evenodd"></path><path id="path1" d="M0.000 200.000 L 0.000 400.000 102.100 399.944 C 158.255 399.913,203.210 399.751,202.000 399.583 C 200.790 399.416,198.665 399.261,197.277 399.240 C 195.889 399.218,193.549 399.028,192.077 398.818 C 190.605 398.608,187.510 398.238,185.200 397.995 C 180.413 397.492,177.861 397.081,169.000 395.383 C 157.748 393.226,147.637 390.323,135.200 385.677 C 123.272 381.221,109.913 374.497,100.200 368.060 C 97.546 366.301,89.449 360.142,88.699 359.311 C 88.036 358.577,88.003 355.377,88.099 301.419 L 88.200 244.303 91.000 242.711 C 92.540 241.836,94.790 240.567,96.000 239.893 C 97.210 239.218,106.300 234.046,116.200 228.400 C 126.100 222.754,135.280 217.534,136.600 216.801 C 137.920 216.069,145.840 211.567,154.200 206.797 C 162.560 202.028,170.480 197.534,171.800 196.810 C 173.120 196.086,174.380 195.362,174.600 195.200 C 174.820 195.038,176.080 194.315,177.400 193.592 C 178.720 192.870,186.640 188.373,195.000 183.600 C 215.054 172.150,214.775 172.300,215.602 172.516 C 215.996 172.620,222.952 176.486,231.060 181.109 C 239.167 185.732,246.700 190.014,247.800 190.625 C 248.900 191.235,257.900 196.354,267.800 202.001 C 277.700 207.647,286.880 212.866,288.200 213.600 C 289.520 214.334,298.700 219.554,308.600 225.200 C 318.500 230.846,327.590 236.017,328.800 236.690 C 330.010 237.363,333.520 239.347,336.600 241.100 L 342.200 244.286 342.301 301.527 L 342.403 358.769 340.082 360.684 C 329.495 369.421,309.262 380.730,295.994 385.326 C 295.007 385.668,292.670 386.512,290.800 387.203 C 281.651 390.582,269.370 393.929,260.000 395.598 C 258.570 395.852,256.590 396.213,255.600 396.400 C 251.460 397.181,248.769 397.578,244.800 397.995 C 242.490 398.238,239.395 398.608,237.923 398.818 C 236.451 399.028,234.111 399.218,232.723 399.240 C 231.335 399.261,229.210 399.416,228.000 399.583 C 226.790 399.751,264.995 399.913,312.900 399.944 L 400.000 400.000 400.000 200.000 L 400.000 0.000 329.247 0.000 L 258.494 0.000 259.003 1.500 C 259.283 2.325,262.078 11.613,265.215 22.140 C 271.044 41.705,271.209 42.510,269.267 41.796 C 266.513 40.783,254.642 41.357,249.121 42.769 C 235.279 46.309,223.185 56.536,217.182 69.776 C 216.527 71.219,215.837 72.400,215.647 72.400 C 215.175 72.400,212.958 67.697,211.593 63.800 C 199.807 30.169,212.182 8.426,247.200 1.240 L 253.000 0.050 126.500 0.025 L 0.000 0.000 0.000 200.000 M222.313 82.870 C 225.771 84.889,230.850 87.829,233.600 89.403 C 236.350 90.977,240.400 93.310,242.600 94.586 C 247.105 97.199,257.881 103.425,272.400 111.803 C 277.790 114.913,284.540 118.813,287.400 120.469 C 290.260 122.125,295.660 125.246,299.400 127.404 C 303.140 129.563,308.990 132.942,312.400 134.913 C 315.810 136.884,321.480 140.156,325.000 142.183 C 328.520 144.210,333.830 147.277,336.800 148.999 C 339.770 150.721,343.910 153.113,346.000 154.315 C 348.090 155.517,351.690 157.588,354.000 158.917 C 356.310 160.246,358.515 161.602,358.900 161.929 C 359.699 162.609,360.017 228.895,359.223 229.386 C 359.016 229.514,356.271 228.119,353.123 226.286 C 349.975 224.453,343.710 220.819,339.200 218.210 C 334.690 215.601,327.850 211.642,324.000 209.410 C 320.150 207.179,313.310 203.219,308.800 200.610 C 304.290 198.002,297.450 194.042,293.600 191.810 C 289.750 189.579,283.000 185.671,278.600 183.125 C 274.200 180.579,267.720 176.824,264.200 174.781 C 260.680 172.738,255.100 169.508,251.800 167.603 C 248.500 165.698,242.110 162.001,237.600 159.389 C 218.980 148.603,215.772 146.800,215.200 146.802 C 214.528 146.803,213.215 147.550,177.600 168.198 C 163.630 176.297,149.500 184.484,146.200 186.392 C 142.900 188.299,138.444 190.880,136.298 192.126 C 134.152 193.373,130.686 195.382,128.596 196.592 C 126.506 197.802,123.086 199.782,120.996 200.992 C 118.906 202.202,115.532 204.156,113.498 205.333 C 111.464 206.511,108.000 208.516,105.800 209.790 C 103.600 211.063,100.180 213.043,98.200 214.190 C 96.220 215.336,92.890 217.264,90.800 218.474 C 88.710 219.684,85.290 221.664,83.200 222.874 C 81.110 224.084,77.618 226.105,75.440 227.364 C 72.405 229.118,71.402 229.530,71.146 229.126 C 70.962 228.837,70.809 213.717,70.806 195.527 L 70.800 162.454 71.900 161.687 C 72.505 161.265,77.320 158.436,82.600 155.400 C 87.880 152.363,93.640 149.029,95.400 147.989 C 97.160 146.949,102.920 143.613,108.200 140.575 C 120.886 133.276,128.629 128.810,135.200 125.000 C 138.170 123.277,143.480 120.210,147.000 118.183 C 154.626 113.791,163.783 108.500,171.200 104.200 C 174.170 102.477,179.480 99.411,183.000 97.384 C 193.250 91.484,204.634 84.889,209.600 81.973 C 215.408 78.564,214.871 78.526,222.313 82.870 M171.385 248.096 C 171.278 248.373,171.238 256.880,171.296 267.000 L 171.400 285.400 190.000 285.400 L 208.600 285.400 208.600 266.600 L 208.600 247.800 190.089 247.696 C 175.494 247.614,171.537 247.699,171.385 248.096 M221.785 248.096 C 221.678 248.373,221.638 256.880,221.696 267.000 L 221.800 285.400 240.400 285.400 L 259.000 285.400 259.000 266.600 L 259.000 247.800 240.489 247.696 C 225.894 247.614,221.937 247.699,221.785 248.096 M171.385 298.096 C 171.278 298.373,171.238 306.790,171.296 316.800 L 171.400 335.000 190.104 335.104 L 208.808 335.208 208.704 316.504 L 208.600 297.800 190.089 297.696 C 175.494 297.614,171.537 297.699,171.385 298.096 M221.871 297.863 C 221.722 298.012,221.600 306.475,221.600 316.671 L 221.600 335.208 240.300 335.104 L 259.000 335.000 259.000 316.400 L 259.000 297.800 240.571 297.696 C 230.434 297.639,222.019 297.714,221.871 297.863 " stroke="none" fill="#fbfbfb" fill-rule="evenodd"></path><path id="path2" d="M251.600 0.400 L 250.200 0.695 251.600 0.719 C 252.370 0.733,253.360 0.589,253.800 0.400 L 254.600 0.056 253.800 0.081 C 253.360 0.094,252.370 0.238,251.600 0.400 M243.600 2.000 C 242.796 2.257,242.757 2.323,243.400 2.332 C 243.840 2.338,244.560 2.189,245.000 2.000 C 246.019 1.562,244.968 1.562,243.600 2.000 M226.300 8.629 C 224.805 9.440,224.896 9.778,226.400 9.000 C 227.060 8.659,227.600 8.294,227.600 8.190 C 227.600 7.932,227.557 7.947,226.300 8.629 M217.606 14.994 C 216.863 15.761,216.332 16.450,216.427 16.525 C 216.522 16.600,217.206 15.973,217.946 15.131 C 219.629 13.218,219.412 13.131,217.606 14.994 M210.981 24.037 C 210.629 24.718,210.412 25.345,210.499 25.432 C 210.586 25.519,210.956 24.962,211.322 24.195 C 212.144 22.470,211.859 22.338,210.981 24.037 M208.229 31.429 C 208.081 32.015,208.038 32.572,208.132 32.666 C 208.227 32.760,208.424 32.358,208.571 31.771 C 208.719 31.185,208.762 30.628,208.668 30.534 C 208.573 30.440,208.376 30.842,208.229 31.429 M207.301 37.400 C 207.305 38.280,207.387 38.593,207.483 38.095 C 207.579 37.598,207.575 36.878,207.475 36.495 C 207.375 36.113,207.296 36.520,207.301 37.400 M260.500 41.091 C 261.325 41.178,262.675 41.178,263.500 41.091 C 264.325 41.005,263.650 40.934,262.000 40.934 C 260.350 40.934,259.675 41.005,260.500 41.091 M255.900 41.482 C 256.395 41.578,257.205 41.578,257.700 41.482 C 258.195 41.387,257.790 41.309,256.800 41.309 C 255.810 41.309,255.405 41.387,255.900 41.482 M207.701 48.200 C 207.705 49.080,207.787 49.393,207.883 48.895 C 207.979 48.398,207.975 47.678,207.875 47.295 C 207.775 46.913,207.696 47.320,207.701 48.200 M234.200 49.035 L 233.000 50.066 234.400 49.163 C 236.196 48.004,236.201 48.000,235.767 48.002 C 235.565 48.003,234.860 48.468,234.200 49.035 M227.139 55.100 C 223.773 58.570,220.290 63.128,218.808 66.000 C 217.958 67.647,218.594 66.806,221.186 62.857 C 222.537 60.798,225.370 57.333,227.482 55.157 C 229.593 52.980,231.231 51.200,231.121 51.200 C 231.011 51.200,229.219 52.955,227.139 55.100 M212.028 64.892 C 211.982 65.365,213.286 68.448,213.458 68.275 C 213.545 68.188,213.266 67.325,212.837 66.358 C 212.408 65.391,212.044 64.731,212.028 64.892 M216.800 79.964 C 217.350 80.414,217.980 80.783,218.200 80.785 C 218.628 80.788,217.905 80.234,216.600 79.560 C 216.069 79.285,216.136 79.421,216.800 79.964 M211.900 80.629 C 210.405 81.440,210.496 81.778,212.000 81.000 C 212.660 80.659,213.200 80.294,213.200 80.190 C 213.200 79.932,213.157 79.947,211.900 80.629 M206.300 83.829 C 204.805 84.640,204.896 84.978,206.400 84.200 C 207.060 83.859,207.600 83.494,207.600 83.390 C 207.600 83.132,207.557 83.147,206.300 83.829 M222.800 83.379 C 222.800 83.489,223.340 83.859,224.000 84.200 C 224.660 84.541,225.200 84.731,225.200 84.621 C 225.200 84.511,224.660 84.141,224.000 83.800 C 223.340 83.459,222.800 83.269,222.800 83.379 M197.800 88.800 C 197.140 89.237,196.780 89.592,197.000 89.588 C 197.401 89.582,199.576 88.023,199.200 88.012 C 199.090 88.008,198.460 88.363,197.800 88.800 M232.000 88.764 C 232.550 89.214,233.180 89.583,233.400 89.585 C 233.828 89.588,233.105 89.034,231.800 88.360 C 231.269 88.085,231.336 88.221,232.000 88.764 M237.600 91.964 C 238.150 92.414,238.780 92.783,239.000 92.785 C 239.428 92.788,238.705 92.234,237.400 91.560 C 236.869 91.285,236.936 91.421,237.600 91.964 M191.100 92.629 C 189.605 93.440,189.696 93.778,191.200 93.000 C 191.860 92.659,192.400 92.294,192.400 92.190 C 192.400 91.932,192.357 91.947,191.100 92.629 M243.600 95.379 C 243.600 95.489,244.140 95.859,244.800 96.200 C 245.460 96.541,246.000 96.731,246.000 96.621 C 246.000 96.511,245.460 96.141,244.800 95.800 C 244.140 95.459,243.600 95.269,243.600 95.379 M182.600 97.600 C 181.940 98.037,181.580 98.392,181.800 98.388 C 182.201 98.382,184.376 96.823,184.000 96.812 C 183.890 96.808,183.260 97.163,182.600 97.600 M177.000 100.800 C 176.340 101.237,175.980 101.592,176.200 101.588 C 176.601 101.582,178.776 100.023,178.400 100.012 C 178.290 100.008,177.660 100.363,177.000 100.800 M252.800 100.764 C 253.350 101.214,253.980 101.583,254.200 101.585 C 254.628 101.588,253.905 101.034,252.600 100.360 C 252.069 100.085,252.136 100.221,252.800 100.764 M170.300 104.629 C 168.805 105.440,168.896 105.778,170.400 105.000 C 171.060 104.659,171.600 104.294,171.600 104.190 C 171.600 103.932,171.557 103.947,170.300 104.629 M258.800 104.179 C 258.800 104.289,259.340 104.659,260.000 105.000 C 260.660 105.341,261.200 105.531,261.200 105.421 C 261.200 105.311,260.660 104.941,260.000 104.600 C 259.340 104.259,258.800 104.069,258.800 104.179 M161.800 109.600 C 161.140 110.037,160.780 110.392,161.000 110.388 C 161.401 110.382,163.576 108.823,163.200 108.812 C 163.090 108.808,162.460 109.163,161.800 109.600 M273.600 112.764 C 274.150 113.214,274.780 113.583,275.000 113.585 C 275.428 113.588,274.705 113.034,273.400 112.360 C 272.869 112.085,272.936 112.221,273.600 112.764 M155.100 113.429 C 153.605 114.240,153.696 114.578,155.200 113.800 C 155.860 113.459,156.400 113.094,156.400 112.990 C 156.400 112.732,156.357 112.747,155.100 113.429 M279.600 116.179 C 279.600 116.289,280.140 116.659,280.800 117.000 C 281.460 117.341,282.000 117.531,282.000 117.421 C 282.000 117.311,281.460 116.941,280.800 116.600 C 280.140 116.259,279.600 116.069,279.600 116.179 M141.000 121.600 C 140.340 122.037,139.980 122.392,140.200 122.388 C 140.601 122.382,142.776 120.823,142.400 120.812 C 142.290 120.808,141.660 121.163,141.000 121.600 M288.800 121.564 C 289.350 122.014,289.980 122.383,290.200 122.385 C 290.628 122.388,289.905 121.834,288.600 121.160 C 288.069 120.885,288.136 121.021,288.800 121.564 M134.300 125.429 C 132.805 126.240,132.896 126.578,134.400 125.800 C 135.060 125.459,135.600 125.094,135.600 124.990 C 135.600 124.732,135.557 124.747,134.300 125.429 M294.800 124.979 C 294.800 125.089,295.340 125.459,296.000 125.800 C 296.660 126.141,297.200 126.331,297.200 126.221 C 297.200 126.111,296.660 125.741,296.000 125.400 C 295.340 125.059,294.800 124.869,294.800 124.979 M300.400 128.179 C 300.400 128.289,300.940 128.659,301.600 129.000 C 302.260 129.341,302.800 129.531,302.800 129.421 C 302.800 129.311,302.260 128.941,301.600 128.600 C 300.940 128.259,300.400 128.069,300.400 128.179 M125.800 130.400 C 125.140 130.837,124.780 131.192,125.000 131.188 C 125.401 131.182,127.576 129.623,127.200 129.612 C 127.090 129.608,126.460 129.963,125.800 130.400 M309.600 133.564 C 310.150 134.014,310.780 134.383,311.000 134.385 C 311.428 134.388,310.705 133.834,309.400 133.160 C 308.869 132.885,308.936 133.021,309.600 133.564 M119.100 134.229 C 117.605 135.040,117.696 135.378,119.200 134.600 C 119.860 134.259,120.400 133.894,120.400 133.790 C 120.400 133.532,120.357 133.547,119.100 134.229 M315.600 136.979 C 315.600 137.089,316.140 137.459,316.800 137.800 C 317.460 138.141,318.000 138.331,318.000 138.221 C 318.000 138.111,317.460 137.741,316.800 137.400 C 316.140 137.059,315.600 136.869,315.600 136.979 M105.000 142.400 C 104.340 142.837,103.980 143.192,104.200 143.188 C 104.601 143.182,106.776 141.623,106.400 141.612 C 106.290 141.608,105.660 141.963,105.000 142.400 M330.400 145.564 C 330.950 146.014,331.580 146.383,331.800 146.385 C 332.228 146.388,331.505 145.834,330.200 145.160 C 329.669 144.885,329.736 145.021,330.400 145.564 M98.300 146.229 C 96.805 147.040,96.896 147.378,98.400 146.600 C 99.060 146.259,99.600 145.894,99.600 145.790 C 99.600 145.532,99.557 145.547,98.300 146.229 M213.500 147.029 C 211.916 147.888,212.144 148.109,213.800 147.319 C 215.107 146.696,215.293 146.696,216.600 147.319 C 218.296 148.128,218.480 147.869,216.820 147.010 C 215.375 146.263,214.906 146.266,213.500 147.029 M336.400 148.979 C 336.400 149.089,336.940 149.459,337.600 149.800 C 338.260 150.141,338.800 150.331,338.800 150.221 C 338.800 150.111,338.260 149.741,337.600 149.400 C 336.940 149.059,336.400 148.869,336.400 148.979 M89.800 151.200 C 89.140 151.637,88.780 151.992,89.000 151.988 C 89.401 151.982,91.576 150.423,91.200 150.412 C 91.090 150.408,90.460 150.763,89.800 151.200 M206.400 151.236 C 205.736 151.779,205.669 151.915,206.200 151.640 C 207.505 150.966,208.228 150.412,207.800 150.415 C 207.580 150.417,206.950 150.786,206.400 151.236 M222.800 150.820 C 224.187 151.761,224.978 152.035,224.000 151.236 C 223.450 150.786,222.820 150.417,222.600 150.415 C 222.380 150.413,222.470 150.596,222.800 150.820 M345.600 154.364 C 346.150 154.814,346.780 155.183,347.000 155.185 C 347.428 155.188,346.705 154.634,345.400 153.960 C 344.869 153.685,344.936 153.821,345.600 154.364 M83.100 155.029 C 81.605 155.840,81.696 156.178,83.200 155.400 C 83.860 155.059,84.400 154.694,84.400 154.590 C 84.400 154.332,84.357 154.347,83.100 155.029 M198.300 155.829 C 196.805 156.640,196.896 156.978,198.400 156.200 C 199.060 155.859,199.600 155.494,199.600 155.390 C 199.600 155.132,199.557 155.147,198.300 155.829 M230.800 155.379 C 230.800 155.489,231.340 155.859,232.000 156.200 C 232.660 156.541,233.200 156.731,233.200 156.621 C 233.200 156.511,232.660 156.141,232.000 155.800 C 231.340 155.459,230.800 155.269,230.800 155.379 M351.600 157.779 C 351.600 157.889,352.140 158.259,352.800 158.600 C 353.460 158.941,354.000 159.131,354.000 159.021 C 354.000 158.911,353.460 158.541,352.800 158.200 C 352.140 157.859,351.600 157.669,351.600 157.779 M191.200 160.036 C 190.536 160.579,190.469 160.715,191.000 160.440 C 192.305 159.766,193.028 159.212,192.600 159.215 C 192.380 159.217,191.750 159.586,191.200 160.036 M238.000 159.620 C 239.387 160.561,240.178 160.835,239.200 160.036 C 238.650 159.586,238.020 159.217,237.800 159.215 C 237.580 159.213,237.670 159.396,238.000 159.620 M358.100 161.604 L 359.200 162.467 359.200 195.876 C 359.200 227.530,359.163 229.272,358.500 229.019 C 357.966 228.816,357.910 228.864,358.265 229.221 C 359.548 230.515,359.600 229.216,359.600 195.838 C 359.600 159.641,359.739 162.067,357.600 161.031 C 357.270 160.871,357.495 161.129,358.100 161.604 M71.247 162.144 C 70.918 162.540,70.824 171.677,70.900 195.844 L 71.005 229.000 71.102 195.780 C 71.176 170.586,71.316 162.444,71.680 162.080 C 71.944 161.816,72.056 161.600,71.929 161.600 C 71.802 161.600,71.495 161.845,71.247 162.144 M183.100 164.629 C 181.605 165.440,181.696 165.778,183.200 165.000 C 183.860 164.659,184.400 164.294,184.400 164.190 C 184.400 163.932,184.357 163.947,183.100 164.629 M246.000 164.179 C 246.000 164.289,246.540 164.659,247.200 165.000 C 247.860 165.341,248.400 165.531,248.400 165.421 C 248.400 165.311,247.860 164.941,247.200 164.600 C 246.540 164.259,246.000 164.069,246.000 164.179 M176.000 168.836 C 175.336 169.379,175.269 169.515,175.800 169.240 C 177.105 168.566,177.828 168.012,177.400 168.015 C 177.180 168.017,176.550 168.386,176.000 168.836 M253.200 168.420 C 254.587 169.361,255.378 169.635,254.400 168.836 C 253.850 168.386,253.220 168.017,253.000 168.015 C 252.780 168.013,252.870 168.196,253.200 168.420 M212.400 173.679 C 211.190 174.363,203.360 178.828,195.000 183.601 C 186.640 188.374,178.720 192.870,177.400 193.592 C 176.080 194.315,174.820 195.038,174.600 195.200 C 174.380 195.362,173.120 196.086,171.800 196.810 C 170.480 197.534,162.560 202.028,154.200 206.797 C 145.840 211.567,137.920 216.069,136.600 216.801 C 135.280 217.534,126.100 222.754,116.200 228.400 C 106.300 234.046,97.210 239.218,96.000 239.893 C 94.790 240.567,92.540 241.836,91.000 242.711 L 88.200 244.303 88.099 301.419 C 88.003 355.377,88.036 358.577,88.699 359.311 C 89.449 360.142,97.546 366.301,100.200 368.060 C 118.935 380.476,144.657 390.692,169.000 395.386 C 177.238 396.975,180.384 397.488,184.900 397.977 C 200.916 399.713,205.265 400.007,215.000 400.007 C 223.176 400.007,228.357 399.727,237.400 398.797 C 247.680 397.741,250.368 397.387,255.600 396.400 C 256.590 396.213,258.570 395.852,260.000 395.598 C 269.370 393.929,281.651 390.582,290.800 387.203 C 292.670 386.512,295.007 385.668,295.994 385.326 C 309.262 380.730,329.495 369.421,340.082 360.684 L 342.403 358.769 342.301 301.527 L 342.200 244.286 336.600 241.100 C 333.520 239.347,330.010 237.363,328.800 236.690 C 327.590 236.017,318.500 230.846,308.600 225.200 C 298.700 219.554,289.520 214.334,288.200 213.600 C 286.880 212.866,277.700 207.647,267.800 202.001 C 257.900 196.354,248.900 191.235,247.800 190.624 C 246.700 190.013,239.044 185.662,230.786 180.956 C 214.127 171.463,215.417 171.973,212.400 173.679 M167.900 173.429 C 166.405 174.240,166.496 174.578,168.000 173.800 C 168.660 173.459,169.200 173.094,169.200 172.990 C 169.200 172.732,169.157 172.747,167.900 173.429 M261.200 172.979 C 261.200 173.089,261.740 173.459,262.400 173.800 C 263.060 174.141,263.600 174.331,263.600 174.221 C 263.600 174.111,263.060 173.741,262.400 173.400 C 261.740 173.059,261.200 172.869,261.200 172.979 M216.920 173.858 C 217.624 174.220,225.220 178.513,233.800 183.399 C 242.380 188.284,252.190 193.864,255.600 195.799 C 259.010 197.734,267.560 202.597,274.600 206.605 C 281.640 210.613,292.080 216.549,297.800 219.796 C 321.399 233.191,335.181 241.039,338.200 242.799 L 341.400 244.665 341.501 301.695 L 341.603 358.725 339.101 360.678 C 274.594 411.048,159.000 412.040,94.052 362.780 L 89.000 358.948 89.000 301.791 L 89.000 244.634 102.400 236.995 C 109.770 232.794,119.400 227.312,123.800 224.814 C 128.200 222.315,138.910 216.226,147.600 211.283 C 156.290 206.340,165.380 201.173,167.800 199.799 C 172.261 197.268,195.944 183.798,207.981 176.946 C 215.143 172.870,215.055 172.900,216.920 173.858 M268.400 177.220 C 269.787 178.161,270.578 178.435,269.600 177.636 C 269.050 177.186,268.420 176.817,268.200 176.815 C 267.980 176.813,268.070 176.996,268.400 177.220 M152.100 182.626 C 151.165 183.187,150.400 183.740,150.400 183.855 C 150.400 184.071,153.099 182.538,153.780 181.936 C 154.467 181.328,153.827 181.591,152.100 182.626 M276.400 181.779 C 276.400 181.889,276.940 182.259,277.600 182.600 C 278.260 182.941,278.800 183.131,278.800 183.021 C 278.800 182.911,278.260 182.541,277.600 182.200 C 276.940 181.859,276.400 181.669,276.400 181.779 M283.600 186.020 C 284.987 186.961,285.778 187.235,284.800 186.436 C 284.250 185.986,283.620 185.617,283.400 185.615 C 283.180 185.613,283.270 185.796,283.600 186.020 M291.600 190.579 C 291.600 190.689,292.140 191.059,292.800 191.400 C 293.460 191.741,294.000 191.931,294.000 191.821 C 294.000 191.711,293.460 191.341,292.800 191.000 C 292.140 190.659,291.600 190.469,291.600 190.579 M136.000 192.036 C 135.336 192.579,135.269 192.715,135.800 192.440 C 137.105 191.766,137.828 191.212,137.400 191.215 C 137.180 191.217,136.550 191.586,136.000 192.036 M298.800 194.820 C 300.187 195.761,300.978 196.035,300.000 195.236 C 299.450 194.786,298.820 194.417,298.600 194.415 C 298.380 194.413,298.470 194.596,298.800 194.820 M127.900 196.629 C 126.405 197.440,126.496 197.778,128.000 197.000 C 128.660 196.659,129.200 196.294,129.200 196.190 C 129.200 195.932,129.157 195.947,127.900 196.629 M306.800 199.379 C 306.800 199.489,307.340 199.859,308.000 200.200 C 308.660 200.541,309.200 200.731,309.200 200.621 C 309.200 200.511,308.660 200.141,308.000 199.800 C 307.340 199.459,306.800 199.269,306.800 199.379 M120.800 200.836 C 120.136 201.379,120.069 201.515,120.600 201.240 C 121.905 200.566,122.628 200.012,122.200 200.015 C 121.980 200.017,121.350 200.386,120.800 200.836 M314.000 203.620 C 315.387 204.561,316.178 204.835,315.200 204.036 C 314.650 203.586,314.020 203.217,313.800 203.215 C 313.580 203.213,313.670 203.396,314.000 203.620 M112.700 205.429 C 111.205 206.240,111.296 206.578,112.800 205.800 C 113.460 205.459,114.000 205.094,114.000 204.990 C 114.000 204.732,113.957 204.747,112.700 205.429 M322.000 208.179 C 322.000 208.289,322.540 208.659,323.200 209.000 C 323.860 209.341,324.400 209.531,324.400 209.421 C 324.400 209.311,323.860 208.941,323.200 208.600 C 322.540 208.259,322.000 208.069,322.000 208.179 M105.600 209.636 C 104.936 210.179,104.869 210.315,105.400 210.040 C 106.705 209.366,107.428 208.812,107.000 208.815 C 106.780 208.817,106.150 209.186,105.600 209.636 M329.200 212.420 C 330.587 213.361,331.378 213.635,330.400 212.836 C 329.850 212.386,329.220 212.017,329.000 212.015 C 328.780 212.013,328.870 212.196,329.200 212.420 M97.500 214.229 C 96.005 215.040,96.096 215.378,97.600 214.600 C 98.260 214.259,98.800 213.894,98.800 213.790 C 98.800 213.532,98.757 213.547,97.500 214.229 M337.200 216.979 C 337.200 217.089,337.740 217.459,338.400 217.800 C 339.060 218.141,339.600 218.331,339.600 218.221 C 339.600 218.111,339.060 217.741,338.400 217.400 C 337.740 217.059,337.200 216.869,337.200 216.979 M90.400 218.436 C 89.736 218.979,89.669 219.115,90.200 218.840 C 91.505 218.166,92.228 217.612,91.800 217.615 C 91.580 217.617,90.950 217.986,90.400 218.436 M344.400 221.220 C 345.787 222.161,346.578 222.435,345.600 221.636 C 345.050 221.186,344.420 220.817,344.200 220.815 C 343.980 220.813,344.070 220.996,344.400 221.220 M82.300 223.029 C 80.805 223.840,80.896 224.178,82.400 223.400 C 83.060 223.059,83.600 222.694,83.600 222.590 C 83.600 222.332,83.557 222.347,82.300 223.029 M352.400 225.779 C 352.400 225.889,352.940 226.259,353.600 226.600 C 354.260 226.941,354.800 227.131,354.800 227.021 C 354.800 226.911,354.260 226.541,353.600 226.200 C 352.940 225.859,352.400 225.669,352.400 225.779 M75.200 227.236 C 74.536 227.779,74.469 227.915,75.000 227.640 C 76.305 226.966,77.028 226.412,76.600 226.415 C 76.380 226.417,75.750 226.786,75.200 227.236 M171.296 247.132 C 170.900 247.384,170.814 251.552,170.896 266.626 L 171.000 285.800 189.400 285.911 C 199.520 285.972,208.205 285.924,208.700 285.803 L 209.600 285.585 209.600 266.439 L 209.600 247.293 208.700 247.052 C 207.341 246.688,171.876 246.764,171.296 247.132 M221.500 247.232 C 220.849 247.611,220.800 248.965,220.800 266.612 L 220.800 285.585 221.700 285.803 C 222.195 285.924,230.880 285.972,241.000 285.911 L 259.400 285.800 259.504 266.626 C 259.586 251.552,259.500 247.384,259.104 247.132 C 258.339 246.647,222.341 246.742,221.500 247.232 M208.600 266.600 L 208.600 285.400 190.000 285.400 L 171.400 285.400 171.296 267.000 C 171.238 256.880,171.278 248.373,171.385 248.096 C 171.537 247.699,175.494 247.614,190.089 247.696 L 208.600 247.800 208.600 266.600 M259.000 266.600 L 259.000 285.400 240.400 285.400 L 221.800 285.400 221.696 267.000 C 221.638 256.880,221.678 248.373,221.785 248.096 C 221.937 247.699,225.894 247.614,240.489 247.696 L 259.000 247.800 259.000 266.600 M171.245 297.346 C 170.919 297.739,170.821 303.183,170.896 316.846 L 171.000 335.800 190.200 335.800 L 209.400 335.800 209.505 316.800 C 209.601 299.293,209.556 297.761,208.928 297.300 C 207.885 296.535,171.882 296.578,171.245 297.346 M221.472 297.300 C 220.844 297.761,220.799 299.293,220.895 316.800 L 221.000 335.800 240.200 335.800 L 259.400 335.800 259.504 316.846 C 259.579 303.183,259.481 297.739,259.155 297.346 C 258.518 296.578,222.515 296.535,221.472 297.300 M208.704 316.504 L 208.808 335.208 190.104 335.104 L 171.400 335.000 171.296 316.800 C 171.238 306.790,171.278 298.373,171.385 298.096 C 171.537 297.699,175.494 297.614,190.089 297.696 L 208.600 297.800 208.704 316.504 M259.000 316.400 L 259.000 335.000 240.300 335.104 L 221.600 335.208 221.600 316.671 C 221.600 306.475,221.722 298.012,221.871 297.863 C 222.019 297.714,230.434 297.639,240.571 297.696 L 259.000 297.800 259.000 316.400 " stroke="none" fill="#d2aaa6" fill-rule="evenodd"></path><path id="path3" d="M253.800 0.419 C 253.242 0.671,253.485 0.707,254.600 0.538 C 255.480 0.404,256.275 0.228,256.367 0.147 C 256.710 -0.156,254.568 0.071,253.800 0.419 M217.978 15.100 L 216.600 16.600 218.100 15.222 C 219.496 13.938,219.784 13.600,219.478 13.600 C 219.412 13.600,218.737 14.275,217.978 15.100 M207.334 41.600 C 207.334 43.250,207.405 43.925,207.491 43.100 C 207.578 42.275,207.578 40.925,207.491 40.100 C 207.405 39.275,207.334 39.950,207.334 41.600 M257.300 41.076 C 257.685 41.176,258.315 41.176,258.700 41.076 C 259.085 40.975,258.770 40.893,258.000 40.893 C 257.230 40.893,256.915 40.975,257.300 41.076 " stroke="none" fill="#949494" fill-rule="evenodd"></path><path id="path4" d="M255.400 0.377 C 254.343 0.626,254.450 0.680,256.300 0.830 C 257.805 0.952,258.400 0.858,258.400 0.500 C 258.400 -0.035,257.337 -0.079,255.400 0.377 M249.600 1.220 C 248.926 1.449,249.251 1.484,250.600 1.328 C 251.700 1.201,252.675 1.031,252.767 0.949 C 253.082 0.668,250.599 0.880,249.600 1.220 M245.400 2.000 C 244.381 2.438,245.432 2.438,246.800 2.000 C 247.604 1.743,247.643 1.677,247.000 1.668 C 246.560 1.662,245.840 1.811,245.400 2.000 M242.000 2.818 C 241.562 3.115,241.724 3.152,242.600 2.956 C 244.071 2.627,244.390 2.398,243.367 2.406 C 242.945 2.409,242.330 2.595,242.000 2.818 M227.100 8.629 C 225.605 9.440,225.696 9.778,227.200 9.000 C 227.860 8.659,228.400 8.294,228.400 8.190 C 228.400 7.932,228.357 7.947,227.100 8.629 M260.812 10.000 C 260.812 10.330,260.987 10.870,261.200 11.200 C 261.545 11.733,261.588 11.733,261.588 11.200 C 261.588 10.870,261.413 10.330,261.200 10.000 C 260.855 9.467,260.812 9.467,260.812 10.000 M222.360 11.647 C 220.218 13.165,216.249 16.961,215.090 18.600 C 214.623 19.260,215.530 18.432,217.104 16.760 C 218.678 15.088,220.964 13.033,222.183 12.194 C 224.193 10.809,224.667 10.400,224.260 10.400 C 224.183 10.400,223.328 10.961,222.360 11.647 M263.256 18.000 C 263.256 18.330,263.411 18.960,263.600 19.400 C 263.817 19.904,263.944 19.978,263.944 19.600 C 263.944 19.270,263.789 18.640,263.600 18.200 C 263.383 17.696,263.256 17.622,263.256 18.000 M213.398 20.802 C 212.998 21.244,212.766 21.699,212.882 21.815 C 212.997 21.930,213.390 21.569,213.755 21.012 C 214.552 19.796,214.393 19.702,213.398 20.802 M211.814 23.435 C 211.441 24.004,211.205 24.538,211.289 24.622 C 211.373 24.707,211.758 24.241,212.144 23.588 C 213.006 22.128,212.748 22.009,211.814 23.435 M266.644 29.400 C 266.973 30.871,267.202 31.190,267.194 30.167 C 267.191 29.745,267.005 29.130,266.782 28.800 C 266.485 28.362,266.448 28.524,266.644 29.400 M208.256 32.884 C 208.121 33.388,208.027 34.160,208.046 34.600 C 208.065 35.040,208.245 34.698,208.446 33.840 C 208.836 32.178,208.670 31.340,208.256 32.884 M268.856 36.800 C 268.856 37.130,269.011 37.760,269.200 38.200 C 269.417 38.704,269.544 38.778,269.544 38.400 C 269.544 38.070,269.389 37.440,269.200 37.000 C 268.983 36.496,268.856 36.422,268.856 36.800 M207.750 41.400 C 207.751 43.820,207.816 44.758,207.896 43.485 C 207.976 42.212,207.975 40.232,207.894 39.085 C 207.814 37.938,207.749 38.980,207.750 41.400 M269.834 40.112 C 270.091 41.218,270.083 41.223,268.346 41.026 C 266.923 40.865,266.822 40.891,267.800 41.167 C 270.315 41.876,271.127 41.293,269.982 39.600 C 269.681 39.156,269.643 39.289,269.834 40.112 M260.707 40.690 C 261.426 40.779,262.506 40.777,263.107 40.686 C 263.708 40.595,263.120 40.522,261.800 40.524 C 260.480 40.526,259.988 40.601,260.707 40.690 M253.400 41.200 C 251.737 41.623,253.374 41.642,255.400 41.223 C 256.745 40.945,256.809 40.892,255.800 40.893 C 255.140 40.894,254.060 41.032,253.400 41.200 M249.000 42.000 C 247.981 42.438,249.032 42.438,250.400 42.000 C 251.204 41.743,251.243 41.677,250.600 41.668 C 250.160 41.662,249.440 41.811,249.000 42.000 M237.900 46.229 C 236.405 47.040,236.496 47.378,238.000 46.600 C 238.660 46.259,239.200 45.894,239.200 45.790 C 239.200 45.532,239.157 45.547,237.900 46.229 M208.028 48.433 C 208.044 49.185,208.212 50.160,208.403 50.600 C 208.626 51.115,208.667 50.687,208.518 49.400 C 208.244 47.022,207.989 46.519,208.028 48.433 M233.697 48.830 C 232.362 49.727,230.940 50.852,230.537 51.330 L 229.806 52.200 230.803 51.350 C 231.351 50.883,232.835 49.823,234.100 48.994 C 236.158 47.646,236.695 47.200,236.263 47.200 C 236.187 47.200,235.032 47.934,233.697 48.830 M208.868 53.000 C 208.862 53.440,209.011 54.160,209.200 54.600 C 209.638 55.619,209.638 54.568,209.200 53.200 C 208.943 52.396,208.877 52.357,208.868 53.000 M227.396 54.004 C 226.766 54.662,226.382 55.200,226.543 55.200 C 226.956 55.200,228.922 53.188,228.713 52.980 C 228.619 52.886,228.026 53.346,227.396 54.004 M209.606 56.233 C 209.609 56.655,209.795 57.270,210.018 57.600 C 210.315 58.038,210.352 57.876,210.156 57.000 C 209.827 55.529,209.598 55.210,209.606 56.233 M223.903 57.938 C 221.916 60.138,218.012 66.000,218.534 66.000 C 218.623 66.000,219.661 64.515,220.840 62.700 C 222.019 60.885,223.593 58.725,224.338 57.900 C 225.084 57.075,225.603 56.400,225.493 56.400 C 225.383 56.400,224.668 57.092,223.903 57.938 M217.479 67.574 C 217.106 68.206,216.801 68.876,216.801 69.062 C 216.802 69.248,217.172 68.795,217.623 68.055 C 218.074 67.315,218.379 66.646,218.301 66.567 C 218.222 66.489,217.852 66.942,217.479 67.574 M213.618 67.651 C 213.580 68.180,214.857 70.876,215.052 70.681 C 215.165 70.568,214.893 69.784,214.447 68.938 C 214.000 68.092,213.627 67.513,213.618 67.651 M212.700 80.629 C 211.205 81.440,211.296 81.778,212.800 81.000 C 213.460 80.659,214.000 80.294,214.000 80.190 C 214.000 79.932,213.957 79.947,212.700 80.629 M216.400 80.179 C 216.400 80.289,216.940 80.659,217.600 81.000 C 218.260 81.341,218.800 81.531,218.800 81.421 C 218.800 81.311,218.260 80.941,217.600 80.600 C 216.940 80.259,216.400 80.069,216.400 80.179 M219.200 81.779 C 219.200 81.889,219.740 82.259,220.400 82.600 C 221.060 82.941,221.600 83.131,221.600 83.021 C 221.600 82.911,221.060 82.541,220.400 82.200 C 219.740 81.859,219.200 81.669,219.200 81.779 M206.500 84.226 C 205.565 84.787,204.800 85.340,204.800 85.455 C 204.800 85.671,207.499 84.138,208.180 83.536 C 208.867 82.928,208.227 83.191,206.500 84.226 M222.000 83.379 C 222.000 83.489,222.540 83.859,223.200 84.200 C 223.860 84.541,224.400 84.731,224.400 84.621 C 224.400 84.511,223.860 84.141,223.200 83.800 C 222.540 83.459,222.000 83.269,222.000 83.379 M202.800 86.436 C 202.136 86.979,202.069 87.115,202.600 86.840 C 203.905 86.166,204.628 85.612,204.200 85.615 C 203.980 85.617,203.350 85.986,202.800 86.436 M226.400 86.020 C 227.787 86.961,228.578 87.235,227.600 86.436 C 227.050 85.986,226.420 85.617,226.200 85.615 C 225.980 85.613,226.070 85.796,226.400 86.020 M200.000 88.036 C 199.336 88.579,199.269 88.715,199.800 88.440 C 201.105 87.766,201.828 87.212,201.400 87.215 C 201.180 87.217,200.550 87.586,200.000 88.036 M229.200 87.620 C 230.587 88.561,231.378 88.835,230.400 88.036 C 229.850 87.586,229.220 87.217,229.000 87.215 C 228.780 87.213,228.870 87.396,229.200 87.620 M197.500 89.429 C 196.005 90.240,196.096 90.578,197.600 89.800 C 198.260 89.459,198.800 89.094,198.800 88.990 C 198.800 88.732,198.757 88.747,197.500 89.429 M231.600 88.990 C 231.600 89.094,232.185 89.465,232.900 89.814 L 234.200 90.448 233.200 89.633 C 232.237 88.848,231.600 88.592,231.600 88.990 M194.700 91.029 C 193.205 91.840,193.296 92.178,194.800 91.400 C 195.460 91.059,196.000 90.694,196.000 90.590 C 196.000 90.332,195.957 90.347,194.700 91.029 M234.800 90.820 C 236.187 91.761,236.978 92.035,236.000 91.236 C 235.450 90.786,234.820 90.417,234.600 90.415 C 234.380 90.413,234.470 90.596,234.800 90.820 M191.900 92.629 C 190.405 93.440,190.496 93.778,192.000 93.000 C 192.660 92.659,193.200 92.294,193.200 92.190 C 193.200 91.932,193.157 91.947,191.900 92.629 M237.200 92.179 C 237.200 92.289,237.740 92.659,238.400 93.000 C 239.060 93.341,239.600 93.531,239.600 93.421 C 239.600 93.311,239.060 92.941,238.400 92.600 C 237.740 92.259,237.200 92.069,237.200 92.179 M240.000 93.779 C 240.000 93.889,240.540 94.259,241.200 94.600 C 241.860 94.941,242.400 95.131,242.400 95.021 C 242.400 94.911,241.860 94.541,241.200 94.200 C 240.540 93.859,240.000 93.669,240.000 93.779 M187.600 95.236 C 186.936 95.779,186.869 95.915,187.400 95.640 C 188.705 94.966,189.428 94.412,189.000 94.415 C 188.780 94.417,188.150 94.786,187.600 95.236 M243.000 95.490 C 243.220 95.700,244.120 96.276,245.000 96.770 C 245.880 97.265,246.240 97.370,245.800 97.004 C 244.906 96.261,242.372 94.891,243.000 95.490 M184.800 96.836 C 184.136 97.379,184.069 97.515,184.600 97.240 C 185.905 96.566,186.628 96.012,186.200 96.015 C 185.980 96.017,185.350 96.386,184.800 96.836 M182.000 98.433 L 181.000 99.248 182.300 98.614 C 183.015 98.265,183.600 97.894,183.600 97.790 C 183.600 97.392,182.963 97.648,182.000 98.433 M247.200 98.020 C 248.587 98.961,249.378 99.235,248.400 98.436 C 247.850 97.986,247.220 97.617,247.000 97.615 C 246.780 97.613,246.870 97.796,247.200 98.020 M179.200 100.036 C 178.536 100.579,178.469 100.715,179.000 100.440 C 180.305 99.766,181.028 99.212,180.600 99.215 C 180.380 99.217,179.750 99.586,179.200 100.036 M250.000 99.620 C 251.387 100.561,252.178 100.835,251.200 100.036 C 250.650 99.586,250.020 99.217,249.800 99.215 C 249.580 99.213,249.670 99.396,250.000 99.620 M176.700 101.429 C 175.205 102.240,175.296 102.578,176.800 101.800 C 177.460 101.459,178.000 101.094,178.000 100.990 C 178.000 100.732,177.957 100.747,176.700 101.429 M252.400 100.979 C 252.400 101.089,252.940 101.459,253.600 101.800 C 254.260 102.141,254.800 102.331,254.800 102.221 C 254.800 102.111,254.260 101.741,253.600 101.400 C 252.940 101.059,252.400 100.869,252.400 100.979 M173.900 103.029 C 172.405 103.840,172.496 104.178,174.000 103.400 C 174.660 103.059,175.200 102.694,175.200 102.590 C 175.200 102.332,175.157 102.347,173.900 103.029 M255.200 102.579 C 255.200 102.689,255.740 103.059,256.400 103.400 C 257.060 103.741,257.600 103.931,257.600 103.821 C 257.600 103.711,257.060 103.341,256.400 103.000 C 255.740 102.659,255.200 102.469,255.200 102.579 M170.500 105.026 C 169.565 105.587,168.800 106.140,168.800 106.255 C 168.800 106.471,171.499 104.938,172.180 104.336 C 172.867 103.728,172.227 103.991,170.500 105.026 M258.200 104.290 C 258.420 104.500,259.320 105.076,260.200 105.570 C 261.080 106.065,261.440 106.170,261.000 105.804 C 260.106 105.061,257.572 103.691,258.200 104.290 M166.800 107.233 L 165.800 108.048 167.100 107.414 C 167.815 107.065,168.400 106.694,168.400 106.590 C 168.400 106.192,167.763 106.448,166.800 107.233 M164.000 108.836 C 163.336 109.379,163.269 109.515,163.800 109.240 C 165.105 108.566,165.828 108.012,165.400 108.015 C 165.180 108.017,164.550 108.386,164.000 108.836 M265.200 108.420 C 266.587 109.361,267.378 109.635,266.400 108.836 C 265.850 108.386,265.220 108.017,265.000 108.015 C 264.780 108.013,264.870 108.196,265.200 108.420 M161.500 110.229 C 160.005 111.040,160.096 111.378,161.600 110.600 C 162.260 110.259,162.800 109.894,162.800 109.790 C 162.800 109.532,162.757 109.547,161.500 110.229 M267.600 109.790 C 267.600 109.894,268.185 110.265,268.900 110.614 L 270.200 111.248 269.200 110.433 C 268.237 109.648,267.600 109.392,267.600 109.790 M158.700 111.829 C 157.205 112.640,157.296 112.978,158.800 112.200 C 159.460 111.859,160.000 111.494,160.000 111.390 C 160.000 111.132,159.957 111.147,158.700 111.829 M270.400 111.390 C 270.400 111.494,270.985 111.865,271.700 112.214 L 273.000 112.848 272.000 112.033 C 271.037 111.248,270.400 110.992,270.400 111.390 M155.900 113.429 C 154.405 114.240,154.496 114.578,156.000 113.800 C 156.660 113.459,157.200 113.094,157.200 112.990 C 157.200 112.732,157.157 112.747,155.900 113.429 M273.200 112.979 C 273.200 113.089,273.740 113.459,274.400 113.800 C 275.060 114.141,275.600 114.331,275.600 114.221 C 275.600 114.111,275.060 113.741,274.400 113.400 C 273.740 113.059,273.200 112.869,273.200 112.979 M276.000 114.579 C 276.000 114.689,276.540 115.059,277.200 115.400 C 277.860 115.741,278.400 115.931,278.400 115.821 C 278.400 115.711,277.860 115.341,277.200 115.000 C 276.540 114.659,276.000 114.469,276.000 114.579 M151.600 116.036 C 150.936 116.579,150.869 116.715,151.400 116.440 C 152.705 115.766,153.428 115.212,153.000 115.215 C 152.780 115.217,152.150 115.586,151.600 116.036 M279.000 116.290 C 279.220 116.500,280.120 117.076,281.000 117.570 C 281.880 118.065,282.240 118.170,281.800 117.804 C 280.906 117.061,278.372 115.691,279.000 116.290 M148.800 117.636 C 148.136 118.179,148.069 118.315,148.600 118.040 C 149.905 117.366,150.628 116.812,150.200 116.815 C 149.980 116.817,149.350 117.186,148.800 117.636 M146.000 119.233 L 145.000 120.048 146.300 119.414 C 147.015 119.065,147.600 118.694,147.600 118.590 C 147.600 118.192,146.963 118.448,146.000 119.233 M143.200 120.836 C 142.536 121.379,142.469 121.515,143.000 121.240 C 144.305 120.566,145.028 120.012,144.600 120.015 C 144.380 120.017,143.750 120.386,143.200 120.836 M286.000 120.420 C 287.387 121.361,288.178 121.635,287.200 120.836 C 286.650 120.386,286.020 120.017,285.800 120.015 C 285.580 120.013,285.670 120.196,286.000 120.420 M140.700 122.229 C 139.205 123.040,139.296 123.378,140.800 122.600 C 141.460 122.259,142.000 121.894,142.000 121.790 C 142.000 121.532,141.957 121.547,140.700 122.229 M288.400 121.790 C 288.400 121.894,288.985 122.265,289.700 122.614 L 291.000 123.248 290.000 122.433 C 289.037 121.648,288.400 121.392,288.400 121.790 M137.900 123.829 C 136.405 124.640,136.496 124.978,138.000 124.200 C 138.660 123.859,139.200 123.494,139.200 123.390 C 139.200 123.132,139.157 123.147,137.900 123.829 M291.200 123.379 C 291.200 123.489,291.740 123.859,292.400 124.200 C 293.060 124.541,293.600 124.731,293.600 124.621 C 293.600 124.511,293.060 124.141,292.400 123.800 C 291.740 123.459,291.200 123.269,291.200 123.379 M134.500 125.826 C 133.565 126.387,132.800 126.940,132.800 127.055 C 132.800 127.271,135.499 125.738,136.180 125.136 C 136.867 124.528,136.227 124.791,134.500 125.826 M294.000 124.979 C 294.000 125.089,294.540 125.459,295.200 125.800 C 295.860 126.141,296.400 126.331,296.400 126.221 C 296.400 126.111,295.860 125.741,295.200 125.400 C 294.540 125.059,294.000 124.869,294.000 124.979 M130.800 128.036 C 130.136 128.579,130.069 128.715,130.600 128.440 C 131.905 127.766,132.628 127.212,132.200 127.215 C 131.980 127.217,131.350 127.586,130.800 128.036 M299.800 128.290 C 300.020 128.500,300.920 129.076,301.800 129.570 C 302.680 130.065,303.040 130.170,302.600 129.804 C 301.706 129.061,299.172 127.691,299.800 128.290 M128.000 129.636 C 127.336 130.179,127.269 130.315,127.800 130.040 C 129.105 129.366,129.828 128.812,129.400 128.815 C 129.180 128.817,128.550 129.186,128.000 129.636 M125.500 131.029 C 124.005 131.840,124.096 132.178,125.600 131.400 C 126.260 131.059,126.800 130.694,126.800 130.590 C 126.800 130.332,126.757 130.347,125.500 131.029 M304.000 130.820 C 305.387 131.761,306.178 132.035,305.200 131.236 C 304.650 130.786,304.020 130.417,303.800 130.415 C 303.580 130.413,303.670 130.596,304.000 130.820 M122.700 132.629 C 121.205 133.440,121.296 133.778,122.800 133.000 C 123.460 132.659,124.000 132.294,124.000 132.190 C 124.000 131.932,123.957 131.947,122.700 132.629 M306.800 132.420 C 308.187 133.361,308.978 133.635,308.000 132.836 C 307.450 132.386,306.820 132.017,306.600 132.015 C 306.380 132.013,306.470 132.196,306.800 132.420 M119.300 134.626 C 118.365 135.187,117.600 135.740,117.600 135.855 C 117.600 136.071,120.299 134.538,120.980 133.936 C 121.667 133.328,121.027 133.591,119.300 134.626 M309.200 133.779 C 309.200 133.889,309.740 134.259,310.400 134.600 C 311.060 134.941,311.600 135.131,311.600 135.021 C 311.600 134.911,311.060 134.541,310.400 134.200 C 309.740 133.859,309.200 133.669,309.200 133.779 M312.000 135.379 C 312.000 135.489,312.540 135.859,313.200 136.200 C 313.860 136.541,314.400 136.731,314.400 136.621 C 314.400 136.511,313.860 136.141,313.200 135.800 C 312.540 135.459,312.000 135.269,312.000 135.379 M314.800 136.979 C 314.800 137.089,315.340 137.459,316.000 137.800 C 316.660 138.141,317.200 138.331,317.200 138.221 C 317.200 138.111,316.660 137.741,316.000 137.400 C 315.340 137.059,314.800 136.869,314.800 136.979 M112.800 138.436 C 112.136 138.979,112.069 139.115,112.600 138.840 C 113.905 138.166,114.628 137.612,114.200 137.615 C 113.980 137.617,113.350 137.986,112.800 138.436 M110.000 140.033 L 109.000 140.848 110.300 140.214 C 111.015 139.865,111.600 139.494,111.600 139.390 C 111.600 138.992,110.963 139.248,110.000 140.033 M319.200 139.620 C 320.587 140.561,321.378 140.835,320.400 140.036 C 319.850 139.586,319.220 139.217,319.000 139.215 C 318.780 139.213,318.870 139.396,319.200 139.620 M107.200 141.636 C 106.536 142.179,106.469 142.315,107.000 142.040 C 108.305 141.366,109.028 140.812,108.600 140.815 C 108.380 140.817,107.750 141.186,107.200 141.636 M322.000 141.220 C 323.387 142.161,324.178 142.435,323.200 141.636 C 322.650 141.186,322.020 140.817,321.800 140.815 C 321.580 140.813,321.670 140.996,322.000 141.220 M104.700 143.029 C 103.205 143.840,103.296 144.178,104.800 143.400 C 105.460 143.059,106.000 142.694,106.000 142.590 C 106.000 142.332,105.957 142.347,104.700 143.029 M324.400 142.590 C 324.400 142.694,324.985 143.065,325.700 143.414 L 327.000 144.048 326.000 143.233 C 325.037 142.448,324.400 142.192,324.400 142.590 M101.900 144.629 C 100.405 145.440,100.496 145.778,102.000 145.000 C 102.660 144.659,103.200 144.294,103.200 144.190 C 103.200 143.932,103.157 143.947,101.900 144.629 M327.600 144.420 C 328.987 145.361,329.778 145.635,328.800 144.836 C 328.250 144.386,327.620 144.017,327.400 144.015 C 327.180 144.013,327.270 144.196,327.600 144.420 M98.500 146.626 C 97.565 147.187,96.800 147.740,96.800 147.855 C 96.800 148.071,99.499 146.538,100.180 145.936 C 100.867 145.328,100.227 145.591,98.500 146.626 M330.000 145.779 C 330.000 145.889,330.540 146.259,331.200 146.600 C 331.860 146.941,332.400 147.131,332.400 147.021 C 332.400 146.911,331.860 146.541,331.200 146.200 C 330.540 145.859,330.000 145.669,330.000 145.779 M213.097 146.766 C 211.361 147.878,211.238 148.237,212.923 147.272 C 214.820 146.185,215.581 146.180,217.377 147.240 C 218.160 147.701,218.800 147.989,218.800 147.879 C 218.800 146.530,214.711 145.731,213.097 146.766 M332.800 147.379 C 332.800 147.489,333.340 147.859,334.000 148.200 C 334.660 148.541,335.200 148.731,335.200 148.621 C 335.200 148.511,334.660 148.141,334.000 147.800 C 333.340 147.459,332.800 147.269,332.800 147.379 M209.900 148.629 C 208.405 149.440,208.496 149.778,210.000 149.000 C 210.660 148.659,211.200 148.294,211.200 148.190 C 211.200 147.932,211.157 147.947,209.900 148.629 M219.200 148.179 C 219.200 148.289,219.740 148.659,220.400 149.000 C 221.060 149.341,221.600 149.531,221.600 149.421 C 221.600 149.311,221.060 148.941,220.400 148.600 C 219.740 148.259,219.200 148.069,219.200 148.179 M335.800 149.090 C 336.020 149.300,336.920 149.876,337.800 150.370 C 338.680 150.865,339.040 150.970,338.600 150.604 C 337.706 149.861,335.172 148.491,335.800 149.090 M92.000 150.436 C 91.336 150.979,91.269 151.115,91.800 150.840 C 93.105 150.166,93.828 149.612,93.400 149.615 C 93.180 149.617,92.550 149.986,92.000 150.436 M207.100 150.229 C 206.495 150.557,206.000 150.910,206.000 151.013 C 206.000 151.399,206.632 151.157,207.600 150.400 C 208.789 149.470,208.611 149.409,207.100 150.229 M222.000 149.779 C 222.000 149.889,222.540 150.259,223.200 150.600 C 223.860 150.941,224.400 151.131,224.400 151.021 C 224.400 150.911,223.860 150.541,223.200 150.200 C 222.540 149.859,222.000 149.669,222.000 149.779 M89.500 151.829 C 88.005 152.640,88.096 152.978,89.600 152.200 C 90.260 151.859,90.800 151.494,90.800 151.390 C 90.800 151.132,90.757 151.147,89.500 151.829 M204.200 152.000 C 203.540 152.437,203.180 152.792,203.400 152.788 C 203.801 152.782,205.976 151.223,205.600 151.212 C 205.490 151.208,204.860 151.563,204.200 152.000 M225.600 151.964 C 226.150 152.414,226.780 152.783,227.000 152.785 C 227.428 152.788,226.705 152.234,225.400 151.560 C 224.869 151.285,224.936 151.421,225.600 151.964 M340.000 151.620 C 341.387 152.561,342.178 152.835,341.200 152.036 C 340.650 151.586,340.020 151.217,339.800 151.215 C 339.580 151.213,339.670 151.396,340.000 151.620 M86.700 153.429 C 85.205 154.240,85.296 154.578,86.800 153.800 C 87.460 153.459,88.000 153.094,88.000 152.990 C 88.000 152.732,87.957 152.747,86.700 153.429 M201.400 153.600 C 200.740 154.037,200.380 154.392,200.600 154.388 C 201.001 154.382,203.176 152.823,202.800 152.812 C 202.690 152.808,202.060 153.163,201.400 153.600 M228.400 153.564 C 228.950 154.014,229.580 154.383,229.800 154.385 C 230.228 154.388,229.505 153.834,228.200 153.160 C 227.669 152.885,227.736 153.021,228.400 153.564 M342.800 153.220 C 344.187 154.161,344.978 154.435,344.000 153.636 C 343.450 153.186,342.820 152.817,342.600 152.815 C 342.380 152.813,342.470 152.996,342.800 153.220 M83.900 155.029 C 82.405 155.840,82.496 156.178,84.000 155.400 C 84.660 155.059,85.200 154.694,85.200 154.590 C 85.200 154.332,85.157 154.347,83.900 155.029 M231.000 154.996 C 231.894 155.739,234.428 157.109,233.800 156.510 C 233.580 156.300,232.680 155.724,231.800 155.230 C 230.920 154.735,230.560 154.630,231.000 154.996 M345.200 154.579 C 345.200 154.689,345.740 155.059,346.400 155.400 C 347.060 155.741,347.600 155.931,347.600 155.821 C 347.600 155.711,347.060 155.341,346.400 155.000 C 345.740 154.659,345.200 154.469,345.200 154.579 M197.500 155.829 C 196.005 156.640,196.096 156.978,197.600 156.200 C 198.260 155.859,198.800 155.494,198.800 155.390 C 198.800 155.132,198.757 155.147,197.500 155.829 M348.000 156.179 C 348.000 156.289,348.540 156.659,349.200 157.000 C 349.860 157.341,350.400 157.531,350.400 157.421 C 350.400 157.311,349.860 156.941,349.200 156.600 C 348.540 156.259,348.000 156.069,348.000 156.179 M194.600 157.600 C 193.940 158.037,193.580 158.392,193.800 158.388 C 194.201 158.382,196.376 156.823,196.000 156.812 C 195.890 156.808,195.260 157.163,194.600 157.600 M234.400 156.979 C 234.400 157.089,234.940 157.459,235.600 157.800 C 236.260 158.141,236.800 158.331,236.800 158.221 C 236.800 158.111,236.260 157.741,235.600 157.400 C 234.940 157.059,234.400 156.869,234.400 156.979 M77.700 158.626 C 76.765 159.187,76.000 159.740,76.000 159.855 C 76.000 160.071,78.699 158.538,79.380 157.936 C 80.067 157.328,79.427 157.591,77.700 158.626 M350.800 157.779 C 350.800 157.889,351.340 158.259,352.000 158.600 C 352.660 158.941,353.200 159.131,353.200 159.021 C 353.200 158.911,352.660 158.541,352.000 158.200 C 351.340 157.859,350.800 157.669,350.800 157.779 M191.900 159.029 C 191.295 159.357,190.800 159.710,190.800 159.813 C 190.800 160.199,191.432 159.957,192.400 159.200 C 193.589 158.270,193.411 158.209,191.900 159.029 M237.200 158.579 C 237.200 158.689,237.740 159.059,238.400 159.400 C 239.060 159.741,239.600 159.931,239.600 159.821 C 239.600 159.711,239.060 159.341,238.400 159.000 C 237.740 158.659,237.200 158.469,237.200 158.579 M74.000 160.833 L 73.000 161.648 74.300 161.014 C 75.015 160.665,75.600 160.294,75.600 160.190 C 75.600 159.792,74.963 160.048,74.000 160.833 M189.000 160.800 C 188.340 161.237,187.980 161.592,188.200 161.588 C 188.601 161.582,190.776 160.023,190.400 160.012 C 190.290 160.008,189.660 160.363,189.000 160.800 M240.800 160.764 C 241.350 161.214,241.980 161.583,242.200 161.585 C 242.628 161.588,241.905 161.034,240.600 160.360 C 240.069 160.085,240.136 160.221,240.800 160.764 M356.400 160.950 C 356.400 161.044,357.041 161.499,357.824 161.961 C 358.607 162.423,359.136 162.620,358.999 162.398 C 358.731 161.964,356.400 160.666,356.400 160.950 M71.680 162.080 C 71.313 162.447,71.223 170.366,71.298 195.780 L 71.395 229.000 71.500 195.842 C 71.598 164.847,71.650 162.650,72.302 162.155 C 72.686 161.864,72.811 161.620,72.580 161.613 C 72.349 161.606,71.944 161.816,71.680 162.080 M243.600 162.367 C 244.563 163.152,245.200 163.408,245.200 163.010 C 245.200 162.906,244.615 162.535,243.900 162.186 L 242.600 161.552 243.600 162.367 M246.200 163.796 C 247.094 164.539,249.628 165.909,249.000 165.310 C 248.780 165.100,247.880 164.524,247.000 164.030 C 246.120 163.535,245.760 163.430,246.200 163.796 M358.991 196.000 C 358.991 214.150,359.040 221.575,359.100 212.500 C 359.160 203.425,359.160 188.575,359.100 179.500 C 359.040 170.425,358.991 177.850,358.991 196.000 M182.300 164.629 C 180.805 165.440,180.896 165.778,182.400 165.000 C 183.060 164.659,183.600 164.294,183.600 164.190 C 183.600 163.932,183.557 163.947,182.300 164.629 M179.400 166.400 C 178.740 166.837,178.380 167.192,178.600 167.188 C 179.001 167.182,181.176 165.623,180.800 165.612 C 180.690 165.608,180.060 165.963,179.400 166.400 M249.600 165.779 C 249.600 165.889,250.140 166.259,250.800 166.600 C 251.460 166.941,252.000 167.131,252.000 167.021 C 252.000 166.911,251.460 166.541,250.800 166.200 C 250.140 165.859,249.600 165.669,249.600 165.779 M176.700 167.829 C 176.095 168.157,175.600 168.510,175.600 168.613 C 175.600 168.999,176.232 168.757,177.200 168.000 C 178.389 167.070,178.211 167.009,176.700 167.829 M252.400 167.379 C 252.400 167.489,252.940 167.859,253.600 168.200 C 254.260 168.541,254.800 168.731,254.800 168.621 C 254.800 168.511,254.260 168.141,253.600 167.800 C 252.940 167.459,252.400 167.269,252.400 167.379 M173.800 169.600 C 173.140 170.037,172.780 170.392,173.000 170.388 C 173.401 170.382,175.576 168.823,175.200 168.812 C 175.090 168.808,174.460 169.163,173.800 169.600 M256.000 169.564 C 256.550 170.014,257.180 170.383,257.400 170.385 C 257.828 170.388,257.105 169.834,255.800 169.160 C 255.269 168.885,255.336 169.021,256.000 169.564 M258.800 171.164 C 259.350 171.614,259.980 171.983,260.200 171.985 C 260.628 171.988,259.905 171.434,258.600 170.760 C 258.069 170.485,258.136 170.621,258.800 171.164 M261.400 172.596 C 262.294 173.339,264.828 174.709,264.200 174.110 C 263.980 173.900,263.080 173.324,262.200 172.830 C 261.320 172.335,260.960 172.230,261.400 172.596 M167.100 173.429 C 165.605 174.240,165.696 174.578,167.200 173.800 C 167.860 173.459,168.400 173.094,168.400 172.990 C 168.400 172.732,168.357 172.747,167.100 173.429 M164.200 175.200 C 163.540 175.637,163.180 175.992,163.400 175.988 C 163.801 175.982,165.976 174.423,165.600 174.412 C 165.490 174.408,164.860 174.763,164.200 175.200 M264.800 174.579 C 264.800 174.689,265.340 175.059,266.000 175.400 C 266.660 175.741,267.200 175.931,267.200 175.821 C 267.200 175.711,266.660 175.341,266.000 175.000 C 265.340 174.659,264.800 174.469,264.800 174.579 M161.500 176.629 C 160.895 176.957,160.400 177.310,160.400 177.413 C 160.400 177.799,161.032 177.557,162.000 176.800 C 163.189 175.870,163.011 175.809,161.500 176.629 M267.600 176.179 C 267.600 176.289,268.140 176.659,268.800 177.000 C 269.460 177.341,270.000 177.531,270.000 177.421 C 270.000 177.311,269.460 176.941,268.800 176.600 C 268.140 176.259,267.600 176.069,267.600 176.179 M158.296 178.550 C 156.375 179.731,155.838 180.289,157.400 179.481 C 158.654 178.833,160.345 177.626,160.000 177.625 C 159.890 177.625,159.123 178.041,158.296 178.550 M271.200 178.364 C 271.750 178.814,272.380 179.183,272.600 179.185 C 273.028 179.188,272.305 178.634,271.000 177.960 C 270.469 177.685,270.536 177.821,271.200 178.364 M274.000 179.964 C 274.550 180.414,275.180 180.783,275.400 180.785 C 275.828 180.788,275.105 180.234,273.800 179.560 C 273.269 179.285,273.336 179.421,274.000 179.964 M276.600 181.396 C 277.494 182.139,280.028 183.509,279.400 182.910 C 279.180 182.700,278.280 182.124,277.400 181.630 C 276.520 181.135,276.160 181.030,276.600 181.396 M151.900 182.229 C 150.405 183.040,150.496 183.378,152.000 182.600 C 152.660 182.259,153.200 181.894,153.200 181.790 C 153.200 181.532,153.157 181.547,151.900 182.229 M149.000 184.000 C 148.340 184.437,147.980 184.792,148.200 184.788 C 148.601 184.782,150.776 183.223,150.400 183.212 C 150.290 183.208,149.660 183.563,149.000 184.000 M280.000 183.379 C 280.000 183.489,280.540 183.859,281.200 184.200 C 281.860 184.541,282.400 184.731,282.400 184.621 C 282.400 184.511,281.860 184.141,281.200 183.800 C 280.540 183.459,280.000 183.269,280.000 183.379 M146.300 185.429 C 145.695 185.757,145.200 186.110,145.200 186.213 C 145.200 186.599,145.832 186.357,146.800 185.600 C 147.989 184.670,147.811 184.609,146.300 185.429 M282.800 184.979 C 282.800 185.089,283.340 185.459,284.000 185.800 C 284.660 186.141,285.200 186.331,285.200 186.221 C 285.200 186.111,284.660 185.741,284.000 185.400 C 283.340 185.059,282.800 184.869,282.800 184.979 M143.096 187.350 C 141.175 188.531,140.638 189.089,142.200 188.281 C 143.454 187.633,145.145 186.426,144.800 186.425 C 144.690 186.425,143.923 186.841,143.096 187.350 M286.400 187.164 C 286.950 187.614,287.580 187.983,287.800 187.985 C 288.228 187.988,287.505 187.434,286.200 186.760 C 285.669 186.485,285.736 186.621,286.400 187.164 M289.200 188.764 C 289.750 189.214,290.380 189.583,290.600 189.585 C 291.028 189.588,290.305 189.034,289.000 188.360 C 288.469 188.085,288.536 188.221,289.200 188.764 M291.800 190.196 C 292.694 190.939,295.228 192.309,294.600 191.710 C 294.380 191.500,293.480 190.924,292.600 190.430 C 291.720 189.935,291.360 189.830,291.800 190.196 M136.700 191.029 C 135.205 191.840,135.296 192.178,136.800 191.400 C 137.460 191.059,138.000 190.694,138.000 190.590 C 138.000 190.332,137.957 190.347,136.700 191.029 M133.800 192.800 C 133.140 193.237,132.780 193.592,133.000 193.588 C 133.401 193.582,135.576 192.023,135.200 192.012 C 135.090 192.008,134.460 192.363,133.800 192.800 M295.200 192.179 C 295.200 192.289,295.740 192.659,296.400 193.000 C 297.060 193.341,297.600 193.531,297.600 193.421 C 297.600 193.311,297.060 192.941,296.400 192.600 C 295.740 192.259,295.200 192.069,295.200 192.179 M131.100 194.229 C 130.495 194.557,130.000 194.910,130.000 195.013 C 130.000 195.399,130.632 195.157,131.600 194.400 C 132.789 193.470,132.611 193.409,131.100 194.229 M298.000 193.779 C 298.000 193.889,298.540 194.259,299.200 194.600 C 299.860 194.941,300.400 195.131,300.400 195.021 C 300.400 194.911,299.860 194.541,299.200 194.200 C 298.540 193.859,298.000 193.669,298.000 193.779 M127.896 196.150 C 125.975 197.331,125.438 197.889,127.000 197.081 C 128.254 196.433,129.945 195.226,129.600 195.225 C 129.490 195.225,128.723 195.641,127.896 196.150 M301.600 195.964 C 302.150 196.414,302.780 196.783,303.000 196.785 C 303.428 196.788,302.705 196.234,301.400 195.560 C 300.869 195.285,300.936 195.421,301.600 195.964 M304.400 197.564 C 304.950 198.014,305.580 198.383,305.800 198.385 C 306.228 198.388,305.505 197.834,304.200 197.160 C 303.669 196.885,303.736 197.021,304.400 197.564 M124.300 198.229 C 122.805 199.040,122.896 199.378,124.400 198.600 C 125.060 198.259,125.600 197.894,125.600 197.790 C 125.600 197.532,125.557 197.547,124.300 198.229 M307.000 198.996 C 307.894 199.739,310.428 201.109,309.800 200.510 C 309.580 200.300,308.680 199.724,307.800 199.230 C 306.920 198.735,306.560 198.630,307.000 198.996 M121.500 199.829 C 120.005 200.640,120.096 200.978,121.600 200.200 C 122.260 199.859,122.800 199.494,122.800 199.390 C 122.800 199.132,122.757 199.147,121.500 199.829 M118.600 201.600 C 117.940 202.037,117.580 202.392,117.800 202.388 C 118.201 202.382,120.376 200.823,120.000 200.812 C 119.890 200.808,119.260 201.163,118.600 201.600 M310.400 200.979 C 310.400 201.089,310.940 201.459,311.600 201.800 C 312.260 202.141,312.800 202.331,312.800 202.221 C 312.800 202.111,312.260 201.741,311.600 201.400 C 310.940 201.059,310.400 200.869,310.400 200.979 M115.900 203.029 C 115.295 203.357,114.800 203.710,114.800 203.813 C 114.800 204.199,115.432 203.957,116.400 203.200 C 117.589 202.270,117.411 202.209,115.900 203.029 M313.200 202.579 C 313.200 202.689,313.740 203.059,314.400 203.400 C 315.060 203.741,315.600 203.931,315.600 203.821 C 315.600 203.711,315.060 203.341,314.400 203.000 C 313.740 202.659,313.200 202.469,313.200 202.579 M112.696 204.950 C 110.775 206.131,110.238 206.689,111.800 205.881 C 113.054 205.233,114.745 204.026,114.400 204.025 C 114.290 204.025,113.523 204.441,112.696 204.950 M316.800 204.764 C 317.350 205.214,317.980 205.583,318.200 205.585 C 318.628 205.588,317.905 205.034,316.600 204.360 C 316.069 204.085,316.136 204.221,316.800 204.764 M319.600 206.364 C 320.150 206.814,320.780 207.183,321.000 207.185 C 321.428 207.188,320.705 206.634,319.400 205.960 C 318.869 205.685,318.936 205.821,319.600 206.364 M109.100 207.029 C 107.605 207.840,107.696 208.178,109.200 207.400 C 109.860 207.059,110.400 206.694,110.400 206.590 C 110.400 206.332,110.357 206.347,109.100 207.029 M322.200 207.796 C 323.094 208.539,325.628 209.909,325.000 209.310 C 324.780 209.100,323.880 208.524,323.000 208.030 C 322.120 207.535,321.760 207.430,322.200 207.796 M106.300 208.629 C 104.805 209.440,104.896 209.778,106.400 209.000 C 107.060 208.659,107.600 208.294,107.600 208.190 C 107.600 207.932,107.557 207.947,106.300 208.629 M103.500 210.229 C 102.895 210.557,102.400 210.910,102.400 211.013 C 102.400 211.399,103.032 211.157,104.000 210.400 C 105.189 209.470,105.011 209.409,103.500 210.229 M325.600 209.779 C 325.600 209.889,326.140 210.259,326.800 210.600 C 327.460 210.941,328.000 211.131,328.000 211.021 C 328.000 210.911,327.460 210.541,326.800 210.200 C 326.140 209.859,325.600 209.669,325.600 209.779 M100.700 211.829 C 100.095 212.157,99.600 212.510,99.600 212.613 C 99.600 212.999,100.232 212.757,101.200 212.000 C 102.389 211.070,102.211 211.009,100.700 211.829 M328.400 211.379 C 328.400 211.489,328.940 211.859,329.600 212.200 C 330.260 212.541,330.800 212.731,330.800 212.621 C 330.800 212.511,330.260 212.141,329.600 211.800 C 328.940 211.459,328.400 211.269,328.400 211.379 M97.496 213.750 C 95.575 214.931,95.038 215.489,96.600 214.681 C 97.854 214.033,99.545 212.826,99.200 212.825 C 99.090 212.825,98.323 213.241,97.496 213.750 M332.000 213.564 C 332.550 214.014,333.180 214.383,333.400 214.385 C 333.828 214.388,333.105 213.834,331.800 213.160 C 331.269 212.885,331.336 213.021,332.000 213.564 M334.800 215.164 C 335.350 215.614,335.980 215.983,336.200 215.985 C 336.628 215.988,335.905 215.434,334.600 214.760 C 334.069 214.485,334.136 214.621,334.800 215.164 M93.900 215.829 C 92.405 216.640,92.496 216.978,94.000 216.200 C 94.660 215.859,95.200 215.494,95.200 215.390 C 95.200 215.132,95.157 215.147,93.900 215.829 M337.400 216.596 C 338.294 217.339,340.828 218.709,340.200 218.110 C 339.980 217.900,339.080 217.324,338.200 216.830 C 337.320 216.335,336.960 216.230,337.400 216.596 M91.100 217.429 C 89.605 218.240,89.696 218.578,91.200 217.800 C 91.860 217.459,92.400 217.094,92.400 216.990 C 92.400 216.732,92.357 216.747,91.100 217.429 M88.300 219.029 C 87.695 219.357,87.200 219.710,87.200 219.813 C 87.200 220.199,87.832 219.957,88.800 219.200 C 89.989 218.270,89.811 218.209,88.300 219.029 M340.800 218.579 C 340.800 218.689,341.340 219.059,342.000 219.400 C 342.660 219.741,343.200 219.931,343.200 219.821 C 343.200 219.711,342.660 219.341,342.000 219.000 C 341.340 218.659,340.800 218.469,340.800 218.579 M85.400 220.800 C 84.740 221.237,84.380 221.592,84.600 221.588 C 85.001 221.582,87.176 220.023,86.800 220.012 C 86.690 220.008,86.060 220.363,85.400 220.800 M343.600 220.179 C 343.600 220.289,344.140 220.659,344.800 221.000 C 345.460 221.341,346.000 221.531,346.000 221.421 C 346.000 221.311,345.460 220.941,344.800 220.600 C 344.140 220.259,343.600 220.069,343.600 220.179 M82.296 222.550 C 80.375 223.731,79.838 224.289,81.400 223.481 C 82.654 222.833,84.345 221.626,84.000 221.625 C 83.890 221.625,83.123 222.041,82.296 222.550 M347.200 222.364 C 347.750 222.814,348.380 223.183,348.600 223.185 C 349.028 223.188,348.305 222.634,347.000 221.960 C 346.469 221.685,346.536 221.821,347.200 222.364 M350.000 223.964 C 350.550 224.414,351.180 224.783,351.400 224.785 C 351.828 224.788,351.105 224.234,349.800 223.560 C 349.269 223.285,349.336 223.421,350.000 223.964 M78.700 224.629 C 77.205 225.440,77.296 225.778,78.800 225.000 C 79.460 224.659,80.000 224.294,80.000 224.190 C 80.000 223.932,79.957 223.947,78.700 224.629 M352.600 225.396 C 353.494 226.139,356.028 227.509,355.400 226.910 C 355.180 226.700,354.280 226.124,353.400 225.630 C 352.520 225.135,352.160 225.030,352.600 225.396 M75.900 226.229 C 74.405 227.040,74.496 227.378,76.000 226.600 C 76.660 226.259,77.200 225.894,77.200 225.790 C 77.200 225.532,77.157 225.547,75.900 226.229 M73.100 227.829 C 72.495 228.157,72.000 228.510,72.000 228.613 C 72.000 228.999,72.632 228.757,73.600 228.000 C 74.789 227.070,74.611 227.009,73.100 227.829 M356.000 227.379 C 356.000 227.489,356.540 227.859,357.200 228.200 C 357.860 228.541,358.400 228.731,358.400 228.621 C 358.400 228.511,357.860 228.141,357.200 227.800 C 356.540 227.459,356.000 227.269,356.000 227.379 " stroke="none" fill="#908c8c" fill-rule="evenodd"></path></g></svg>